<svg xmlns="http://www.w3.org/2000/svg" xmlns:xlink="http://www.w3.org/1999/xlink" id="Layer_1" data-name="Layer 1" viewBox="0 0 926.29 862.12"><defs><style>.cls-1,.cls-15,.cls-16,.cls-17,.cls-18,.cls-19,.cls-20,.cls-3{fill:none;}.cls-2{fill:#fff;}.cls-3{stroke:#ffde00;}.cls-15,.cls-16,.cls-17,.cls-18,.cls-19,.cls-20,.cls-3{stroke-miterlimit:10;}.cls-4{fill:url(#linear-gradient);}.cls-5{fill:url(#linear-gradient-2);}.cls-6{fill:url(#linear-gradient-3);}.cls-7{fill:url(#linear-gradient-4);}.cls-8{fill:url(#linear-gradient-5);}.cls-9{fill:url(#linear-gradient-6);}.cls-10{fill:url(#linear-gradient-7);}.cls-11{fill:url(#linear-gradient-8);}.cls-12{fill:url(#linear-gradient-9);}.cls-13{fill:url(#linear-gradient-10);}.cls-14{fill:url(#linear-gradient-11);}.cls-15{stroke:url(#linear-gradient-12);}.cls-16{stroke:url(#linear-gradient-13);}.cls-17{stroke:url(#linear-gradient-14);}.cls-18{stroke:url(#linear-gradient-15);}.cls-19{stroke:url(#linear-gradient-16);}.cls-20{stroke:url(#linear-gradient-17);}.cls-21{fill:url(#linear-gradient-18);}.cls-22{clip-path:url(#clip-path);}.cls-23{fill:#2a4920;}.cls-24{fill:#1d1d1b;}</style><linearGradient id="linear-gradient" x1="-150.84" y1="186.58" x2="-150.84" y2="105.96" gradientTransform="matrix(1, 0, -0.25, 1, 721.32, 0)" gradientUnits="userSpaceOnUse"><stop offset="0" stop-color="#f7a516"/><stop offset="1" stop-color="#fec800"/></linearGradient><linearGradient id="linear-gradient-2" x1="-318.46" y1="398.77" x2="-399.07" y2="398.77" gradientTransform="matrix(1, 0, -0.25, 1, 721.32, 0)" gradientUnits="userSpaceOnUse"><stop offset="0" stop-color="#ee751d"/><stop offset="1" stop-color="#f6a200"/></linearGradient><linearGradient id="linear-gradient-3" x1="-278.15" y1="657.45" x2="-278.15" y2="186.58" gradientTransform="matrix(1, 0, -0.25, 1, 721.32, 0)" gradientUnits="userSpaceOnUse"><stop offset="0" stop-color="#e9511e"/><stop offset="1" stop-color="#f7a623"/></linearGradient><linearGradient id="linear-gradient-4" x1="-318.46" y1="226.89" x2="16.78" y2="226.89" gradientTransform="matrix(1, 0, -0.25, 1, 721.32, 0)" gradientUnits="userSpaceOnUse"><stop offset="0" stop-color="#ed6e1e"/><stop offset="1" stop-color="#f7a623"/></linearGradient><linearGradient id="linear-gradient-5" x1="16.78" y1="293.68" x2="97.4" y2="293.68" gradientTransform="matrix(1, 0, -0.25, 1, 721.32, 0)" gradientUnits="userSpaceOnUse"><stop offset="0" stop-color="#ef7b1d"/><stop offset="1" stop-color="#f6a200"/></linearGradient><linearGradient id="linear-gradient-6" x1="-63.84" y1="293.68" x2="16.78" y2="293.68" xlink:href="#linear-gradient-4"/><linearGradient id="linear-gradient-7" x1="-184.88" y1="360.46" x2="16.78" y2="360.46" xlink:href="#linear-gradient-4"/><linearGradient id="linear-gradient-8" x1="-184.88" y1="400.78" x2="-114.15" y2="400.78" xlink:href="#linear-gradient-4"/><linearGradient id="linear-gradient-9" x1="-114.15" y1="468.05" x2="46.53" y2="468.05" xlink:href="#linear-gradient-4"/><linearGradient id="linear-gradient-10" x1="-8.38" y1="481.41" x2="-8.38" y2="400.77" xlink:href="#linear-gradient-4"/><linearGradient id="linear-gradient-11" x1="-145.29" y1="535.89" x2="-69.54" y2="480.85" xlink:href="#linear-gradient-3"/><linearGradient id="linear-gradient-12" x1="-318.96" y1="421.76" x2="17.28" y2="421.76" xlink:href="#linear-gradient"/><linearGradient id="linear-gradient-13" x1="-185.16" y1="457.41" x2="-113.87" y2="457.41" xlink:href="#linear-gradient"/><linearGradient id="linear-gradient-14" x1="-185.25" y1="400.83" x2="28.2" y2="400.83" xlink:href="#linear-gradient"/><linearGradient id="linear-gradient-15" x1="-64.19" y1="400.77" x2="97.75" y2="400.77" xlink:href="#linear-gradient"/><linearGradient id="linear-gradient-16" x1="-64.19" y1="186.58" x2="97.75" y2="186.58" xlink:href="#linear-gradient"/><linearGradient id="linear-gradient-17" x1="-399.43" y1="186.58" x2="-237.48" y2="186.58" xlink:href="#linear-gradient"/><linearGradient id="linear-gradient-18" x1="224.12" y1="191.46" x2="645.47" y2="545.01" gradientUnits="userSpaceOnUse"><stop offset="0.03" stop-color="#bac89a"/><stop offset="0.36" stop-color="#86a24f"/><stop offset="0.37" stop-color="#83a04d"/><stop offset="0.44" stop-color="#72963f"/><stop offset="0.53" stop-color="#678f36"/><stop offset="0.65" stop-color="#608b30"/><stop offset="1" stop-color="#5e8a2f"/></linearGradient><clipPath id="clip-path"><polygon class="cls-1" points="792.33 105.96 295.86 105.96 150.04 691.58 239.16 657.45 328.28 623.32 416.95 267.2 590.95 267.2 577.76 320.15 456.72 320.15 416.57 481.41 469.95 569.06 558.07 535.34 642.61 502.98 629.4 481.41 698.85 481.39 792.33 105.96"/></clipPath></defs><polygon class="cls-2" points="235.38 26.5 892.39 26.5 766.02 533.97 38.11 818.75 235.38 26.5"/><path d="M858.48,53,743.62,514.28,76.21,775.39,256.09,53H858.48M926.29,0H214.67l-10,40.19L24.78,762.58,0,862.12l95.52-37.38L762.93,563.63l25.5-10,6.62-26.58L909.91,65.81,926.29,0Z"/><polygon class="cls-2" points="328.28 623.32 150.04 691.58 295.86 105.96 457.1 105.96 328.28 623.32"/><polygon class="cls-2" points="698.85 481.39 537.61 481.39 631.1 105.96 792.33 105.96 698.85 481.39"/><polygon class="cls-2" points="255.71 267.2 295.86 105.96 792.33 105.96 752.18 267.2 255.71 267.2"/><polygon class="cls-2" points="416.57 481.39 456.72 320.15 739 320.15 698.85 481.39 416.57 481.39"/><polygon class="cls-2" points="416.57 481.41 565.08 376.41 642.61 502.98 469.95 569.06 416.57 481.41"/><polyline class="cls-3" points="261.17 569.06 356.41 186.58 691.64 186.58 638.3 400.77 507.38 400.77 499.25 433.42 526.03 479.82"/><polygon class="cls-4" points="356.41 186.58 295.86 105.96 792.33 105.96 691.64 186.58 356.41 186.58"/><polygon class="cls-5" points="356.41 186.58 239.16 657.45 150.04 691.58 295.86 105.96 356.41 186.58"/><polygon class="cls-6" points="416.95 267.2 356.41 186.58 239.16 657.45 328.28 623.32 416.95 267.2"/><polygon class="cls-7" points="356.41 186.58 416.95 267.2 590.95 267.2 691.64 186.58 356.41 186.58"/><polygon class="cls-8" points="691.64 186.58 792.33 105.96 698.85 481.39 638.3 400.77 691.64 186.58"/><polygon class="cls-9" points="590.95 267.2 691.64 186.58 638.3 400.77 577.76 320.15 590.95 267.2"/><polygon class="cls-10" points="507.38 400.77 456.72 320.15 577.76 320.15 638.3 400.77 507.38 400.77"/><polygon class="cls-11" points="416.57 481.41 499.25 433.42 507.38 400.77 456.72 320.15 416.57 481.41"/><polygon class="cls-12" points="629.4 481.41 507.38 400.77 499.25 433.42 558.07 535.34 642.61 502.98 629.4 481.41"/><polygon class="cls-13" points="698.85 481.39 638.3 400.77 507.38 400.77 629.4 481.41 698.85 481.39"/><polygon class="cls-14" points="416.57 481.41 499.25 433.42 558.07 535.34 469.95 569.06 416.57 481.41"/><polyline class="cls-15" points="239.16 657.45 356.41 186.58 691.64 186.58 638.3 400.77 507.38 400.77 499.25 433.42 558.07 535.34"/><line class="cls-16" x1="416.57" y1="481.41" x2="499.25" y2="433.42"/><polyline class="cls-17" points="629.4 481.41 507.38 400.77 456.72 320.15"/><polyline class="cls-18" points="577.76 320.15 638.3 400.77 698.85 481.39"/><polyline class="cls-19" points="590.95 267.2 691.64 186.58 792.33 105.96"/><line class="cls-20" x1="416.95" y1="267.2" x2="295.86" y2="105.96"/><polygon class="cls-21" points="792.33 105.96 295.86 105.96 150.04 691.58 239.16 657.45 328.28 623.32 416.95 267.2 590.95 267.2 577.76 320.15 456.72 320.15 416.57 481.41 469.95 569.06 558.07 535.34 642.61 502.98 629.4 481.41 698.85 481.39 792.33 105.96"/><g class="cls-22"><path class="cls-23" d="M1019.46,523.92A495.3,495.3,0,1,1,669.24,669a493.76,493.76,0,0,1,350.22-145.07ZM1367.07,671.6a491.58,491.58,0,1,0,144,347.61,490.06,490.06,0,0,0-144-347.61Z"/><path class="cls-23" d="M1033.41,555.14A495.29,495.29,0,1,1,500.77,1010h0a495.29,495.29,0,0,1,532.64-454.88Zm334.95,174.51a490.06,490.06,0,0,0-335.24-170.83h0A491.59,491.59,0,0,0,504.45,1010.3h0a491.6,491.6,0,1,0,863.91-280.66ZM1033.12,558.82ZM500.77,1010Zm3.68.28h0Zm529-455.16Z"/><path class="cls-23" d="M1044.87,587.36a495.26,495.26,0,1,1-368.61,88.45,493.7,493.7,0,0,1,368.61-88.45Zm320.21,200.25a491.59,491.59,0,1,0,87.81,365.87,490.08,490.08,0,0,0-87.81-365.87Z"/><path class="cls-23" d="M1053.5,620.31h0l.24.06a495.27,495.27,0,0,1,366,597h0l-.06.24A495.28,495.28,0,1,1,1053.5,620.31Zm303.76,224.83A490,490,0,0,0,1052.94,624h0a491.6,491.6,0,1,0,363.17,592.86v0a490,490,0,0,0-58.82-371.63Z"/><path class="cls-23" d="M1060,654a495.29,495.29,0,1,1-377.91,29.68A493.73,493.73,0,0,1,1060,654ZM1345,901.88a491.58,491.58,0,1,0,29.47,375.1A490,490,0,0,0,1345,901.88Z"/><path class="cls-23" d="M1063.64,688a495.29,495.29,0,1,1-379.07-.07,493.75,493.75,0,0,1,379.07.07Zm264.59,269.51a491.59,491.59,0,1,0-.07,376.25,490,490,0,0,0,.07-376.25Z"/><path class="cls-23" d="M1064.58,722.14a495.31,495.31,0,1,1-377.9-29.82,493.76,493.76,0,0,1,377.9,29.82Zm242.61,289.45a491.6,491.6,0,1,0-29.61,375.09,490.05,490.05,0,0,0,29.61-375.09Z"/><path class="cls-23" d="M1060.9,759.44l-.05,0a491.6,491.6,0,0,0-676,162.14l0,0A491.59,491.59,0,0,0,547,1597.6l0,0a491.59,491.59,0,0,0,676-162.12l0,0a491.59,491.59,0,0,0-162.14-676Zm2.13-3a495.3,495.3,0,0,1,163.13,681l-.13.2h0a495.28,495.28,0,0,1-681,163.12l-.21-.12h0a495.3,495.3,0,0,1-163.13-681l.13-.2h0a495.28,495.28,0,0,1,681-163.12l.21.13Z"/><path class="cls-23" d="M1056.23,793.18l0,0a491.6,491.6,0,1,0,108.56,686.71h0a491.56,491.56,0,0,0-108.55-686.68Zm2.3-2.89A495.3,495.3,0,0,1,1167.76,1482l-.1.13h0a495.28,495.28,0,1,1-109.26-692l.13.09Z"/><path class="cls-23" d="M1051.34,823.65a495.28,495.28,0,0,1,54.7,698.29c-177.72,207.94-490.36,232.43-698.3,54.71h0A495.28,495.28,0,0,1,353,878.35l0,0a495.28,495.28,0,0,1,698.28-54.69Zm168.29,338.09a490.1,490.1,0,0,0-170.7-335.3h0a491.6,491.6,0,0,0-693.1,54.31h0a491.61,491.61,0,0,0,54.3,693.1h0c206.39,176.39,516.7,152.08,693.1-54.31a490.12,490.12,0,0,0,116.39-357.8Zm-809.5,412.11h0Z"/><path class="cls-23" d="M1041.65,856.43a495.3,495.3,0,1,1-350.16-145.2,493.74,493.74,0,0,1,350.16,145.2Zm141.24,350.27a491.6,491.6,0,1,0-144.12,347.56,490.09,490.09,0,0,0,144.12-347.56Z"/><path class="cls-23" d="M1029.41,888.34l0,0a495.27,495.27,0,0,1-55.24,698.24h0a495.28,495.28,0,0,1-698.24-55.23v0a495.28,495.28,0,0,1,55.23-698.24h0a495.28,495.28,0,0,1,698.24,55.23Zm113.33,360.3a490.09,490.09,0,0,0-116.11-357.88h0a491.62,491.62,0,0,0-693-54.85h0A491.59,491.59,0,0,0,278.72,1529h0a491.62,491.62,0,0,0,693.05,54.85h0a490.1,490.1,0,0,0,171-335.17Z"/><path class="cls-23" d="M1014.74,919.23A495.31,495.31,0,1,1,691.62,721a493.76,493.76,0,0,1,323.12,198.21Zm84.68,368.07A491.61,491.61,0,1,0,902.67,1608a490.07,490.07,0,0,0,196.75-320.71Z"/><path class="cls-23" d="M997.67,948.86A495.28,495.28,0,0,1,834,1629.73h0l-.2.13a495.28,495.28,0,0,1-680.87-163.65h0l-.12-.21A495.29,495.29,0,0,1,316.46,785.12h0l.21-.13a495.3,495.3,0,0,1,681,163.87Zm55.53,373.58A491.6,491.6,0,0,0,318.61,788.13h0A491.6,491.6,0,0,0,155.93,1464l0,0a491.59,491.59,0,0,0,675.91,162.64h0a490.06,490.06,0,0,0,221.31-304.27Z"/><path class="cls-23" d="M978.33,977.05A495.29,495.29,0,0,1,95.61,1426.54h0l-.13-.27A495.28,495.28,0,0,1,312,760.37h0l.27-.14a495.29,495.29,0,0,1,665.9,216.55h0l.13.27Zm26,376.78a490.12,490.12,0,0,0-29.3-375.07l0,0A491.6,491.6,0,0,0,314,763.49l-.07,0A491.6,491.6,0,0,0,98.75,1424.57l0,0a491.6,491.6,0,0,0,905.59-70.77Z"/><path class="cls-23" d="M956.83,1003.64A495.27,495.27,0,1,1,689,735.43a493.68,493.68,0,0,1,267.88,268.21Zm-3.62,377.65A491.6,491.6,0,1,0,687,1647.19a490.1,490.1,0,0,0,266.21-265.9Z"/><path class="cls-23" d="M933.32,1028.46A495.26,495.26,0,1,1,687.31,740a493.75,493.75,0,0,1,246,288.42Zm-33.27,376.2A491.58,491.58,0,1,0,613.8,1648.84a490.05,490.05,0,0,0,286.25-244.18Z"/><path class="cls-23" d="M904.35,1052.2l0-.06A491.63,491.63,0,0,0,311.81,688.55h0A491.61,491.61,0,0,0-51.89,1280.89l.11.21v.23A491.6,491.6,0,0,0,540.7,1644.74h.06A491.61,491.61,0,0,0,904.35,1052.2Zm3.63-.6a495.26,495.26,0,0,1-366.43,596.72l-.24.06h0A495.26,495.26,0,0,1-55.37,1282.16h0l-.05-.2h0l-.06-.23h0A495.26,495.26,0,0,1,310.74,685l.22-.11h.24a495.28,495.28,0,0,1,596.73,366.43l.05.24Z"/><path class="cls-23" d="M880.82,1072.18A495.28,495.28,0,1,1,683,748.82a493.74,493.74,0,0,1,197.84,323.36Zm-91.74,366.37a491.6,491.6,0,1,0-320.93,196.36,490.06,490.06,0,0,0,320.93-196.36Z"/><path class="cls-23" d="M852.16,1090.82a495.29,495.29,0,0,1-455.3,532.28h0a495.29,495.29,0,0,1-532.28-455.3h0a495.29,495.29,0,0,1,987.58-77ZM732,1448.85a491.59,491.59,0,1,0-863.69-281.33h0a491.6,491.6,0,0,0,528.32,451.89h0A490,490,0,0,0,732,1448.85ZM396.59,1619.42Zm.27,3.68Zm-528.6-455.58h0Zm-3.68.28h0Z"/><path class="cls-23" d="M822.12,1107.15a495.28,495.28,0,0,1-990.56-.77h0a495.28,495.28,0,0,1,495.66-494.9h0a495.28,495.28,0,0,1,494.89,495.66h0ZM674.18,1454.64a490.08,490.08,0,0,0,144.26-347.49h0a491.61,491.61,0,0,0-491.21-492h0a491.6,491.6,0,0,0-492,491.22h0a491.59,491.59,0,0,0,838.94,348.26Z"/><path class="cls-23" d="M790.9,1121.07A495.28,495.28,0,0,1-79.71,1403.16,495.29,495.29,0,0,1,336.43,588.08h0a495.29,495.29,0,0,1,454.46,533ZM616.13,1455.88a490,490,0,0,0,171.09-335.1h0a491.59,491.59,0,0,0-451.07-529h0a491.59,491.59,0,1,0,280,864.12Zm171.09-335.1ZM336.43,588.08h0Zm-.28,3.68ZM790.9,1121.07Z"/><path class="cls-23" d="M758.68,1132.5a495.29,495.29,0,0,1-890.07,212.88A495.29,495.29,0,0,1,670.5,763.82a493.73,493.73,0,0,1,88.18,368.68ZM558.17,1452.56A491.6,491.6,0,0,0-19.06,656.64a491.6,491.6,0,0,0,577.23,795.92Z"/><path class="cls-23" d="M725.66,1141.36a495.29,495.29,0,0,1-904,142.36,495.28,495.28,0,0,1,538.58-739.9,495.29,495.29,0,0,1,365.45,597.54Zm-225,303.34a491.6,491.6,0,1,0-513-838.77,491.6,491.6,0,0,0,513,838.77Z"/><path class="cls-23" d="M692.05,1147.61A495.29,495.29,0,0,1,67.65,1465a495.29,495.29,0,0,1,306.69-941.9h0l.29.1a495.28,495.28,0,0,1,317.5,624.1h0l-.09.29ZM443.91,1432.34a490,490,0,0,0,244.62-285.85v0a491.61,491.61,0,0,0-315-619.74h0a491.59,491.59,0,1,0,70.42,905.61Z"/><path class="cls-23" d="M658.05,1151.2A495.32,495.32,0,0,1,10.66,1418.62a495.29,495.29,0,0,1,380-914.8h0A495.3,495.3,0,0,1,658.05,1151.2ZM388.33,1415.58a490.05,490.05,0,0,0,266.31-265.8h0A491.59,491.59,0,0,0,389.22,507.22h0a491.6,491.6,0,1,0-.88,908.36Z"/><path class="cls-23" d="M623.87,1152.11A495.31,495.31,0,0,1-42.51,1367.88,495.29,495.29,0,1,1,408.1,485.73a495.31,495.31,0,0,1,215.77,666.38ZM334.24,1394.49A491.6,491.6,0,0,0,31.35,459.11a491.6,491.6,0,1,0,302.89,935.38Z"/><path class="cls-23" d="M589.73,1150.32A495.29,495.29,0,0,1-91.53,1313.13,495.29,495.29,0,0,1,426.93,469.07a495.29,495.29,0,0,1,162.8,681.25ZM282,1369.24A491.6,491.6,0,0,0,53.44,413,491.6,491.6,0,0,0,282,1369.24Z"/><path class="cls-23" d="M555.83,1145.87A495.27,495.27,0,0,1-136.1,1254.69,495.28,495.28,0,0,1,78.51,365.05a495.28,495.28,0,0,1,477.32,780.82ZM231.83,1340A491.6,491.6,0,1,0,79.07,368.69,491.6,491.6,0,1,0,231.83,1340Z"/><path class="cls-23" d="M522.39,1138.78A495.3,495.3,0,0,1-176,1192.94a495.29,495.29,0,0,1,283.8-870.06,495.29,495.29,0,0,1,414.55,815.9Zm-338.24,168a491.59,491.59,0,1,0-76-980.24,491.59,491.59,0,1,0,76,980.24Z"/><path class="cls-23" d="M489.6,1129.07a495.28,495.28,0,0,1-700.44-.82A495.29,495.29,0,0,1,140.37,283.16,495.29,495.29,0,0,1,489.6,1129.07Zm-350.38,141A491.6,491.6,0,1,0-207.41,430.43a491.61,491.61,0,0,0,346.63,839.62Z"/><path class="cls-23" d="M457.69,1116.83A495.3,495.3,0,0,1-240.53,1061,495.29,495.29,0,0,1,175.93,246.11a495.29,495.29,0,0,1,281.76,870.72Zm-360.38,113A491.59,491.59,0,1,0-182.33,365.62,491.59,491.59,0,0,0,97.31,1229.85Z"/><path class="cls-23" d="M426.82,1102.11A495.28,495.28,0,0,1-264.86,991.68,495.28,495.28,0,0,1,214.29,212,493.77,493.77,0,0,1,537.16,410.3h0l.09.13A495.29,495.29,0,0,1,427,1102h0l-.14.09Zm-368.13,84.4a490.15,490.15,0,0,0,366-87.37h0A491.6,491.6,0,0,0,534.29,412.62l0,0A491.59,491.59,0,0,0-152.25,303,491.6,491.6,0,0,0,58.69,1186.51Z"/><path class="cls-23" d="M397.21,1085A495.28,495.28,0,0,1-283.66,920.63,495.28,495.28,0,0,1-119.27,239.76,495.28,495.28,0,0,1,561.6,404.15,495.28,495.28,0,0,1,397.21,1085ZM23.6,1140.26A491.6,491.6,0,1,0-117.35,242.9a491.61,491.61,0,0,0,141,897.36Z"/><path class="cls-23" d="M369,1065.66A495.28,495.28,0,0,1-296.69,848.61h0l-.14-.28A495.28,495.28,0,0,1-79.78,182.6l.35-.35h.34A495.3,495.3,0,0,1,586.37,399.79l.2.4h0A495.27,495.27,0,0,1,369,1065.66Zm-376.8,25.73A491.59,491.59,0,0,0,612.1,776.59a490,490,0,0,0-29-375.13l0,0A491.61,491.61,0,0,0-77.84,185.75h0l70.07,905.64ZM-293.54,846.66A490,490,0,0,0-7.77,1091.39L-293.54,846.66Zm0,0,0,0,0,0Zm-29-375.1a490.09,490.09,0,0,0,29,375.1l-29-375.1ZM-77.84,185.75A490.09,490.09,0,0,0-322.57,471.53L-77.84,185.75Z"/><path class="cls-23" d="M342.11,1044.29a495.27,495.27,0,0,1-646.4-269.08A495.29,495.29,0,0,1-35.36,128.46h0A495.28,495.28,0,0,1,611.38,397.35l.16.32v.08a495.27,495.27,0,0,1-269.08,646.39l-.35.15Zm-377.3-4.07a490.07,490.07,0,0,0,376.25.52l0,0A491.61,491.61,0,0,0,608,398.79h0A491.59,491.59,0,0,0-33.95,131.87h0a491.6,491.6,0,0,0-1.23,908.35Zm-.17-911.76Z"/><path class="cls-23" d="M317.66,1020.61a495.3,495.3,0,0,1-623.6-318.75h0l0-.12A495.28,495.28,0,0,1,12.77,78.13h0l.12,0a495.28,495.28,0,0,1,304.77,942.52ZM-58.52,987.06A491.61,491.61,0,0,0,603,773.15,491.6,491.6,0,0,0,14.07,81.59H14a491.58,491.58,0,0,0-316.5,619v0a490,490,0,0,0,244,286.45Z"/><path class="cls-23" d="M294.79,995.21a495.28,495.28,0,1,1,366.85-596.7,495.31,495.31,0,0,1-366.85,596.7Zm-372.39-63A491.61,491.61,0,0,0,598.65,770.9,491.59,491.59,0,0,0,65.79,35.26a491.6,491.6,0,0,0-143.39,897Z"/><path class="cls-23" d="M274,968.07A495.27,495.27,0,1,1,686.53,402,495.27,495.27,0,0,1,274,968.07Zm-366.3-92A491.59,491.59,0,0,0,594.51,768.32,491.6,491.6,0,0,0,121-6.89a491.61,491.61,0,0,0-213.36,883Z"/><path class="cls-23" d="M255.36,939.4A495.28,495.28,0,0,1-276.56,483.69h0A495.28,495.28,0,0,1,179.15-48.23h0a495.28,495.28,0,0,1,76.2,987.63ZM-102.58,818.91a491.6,491.6,0,1,0,282-863.46h0a491.59,491.59,0,0,0-452.3,528h0a490,490,0,0,0,170.3,335.49Zm-170.3-335.5h0Zm-3.68.28h0Zm456-528.24h0Zm-.28-3.68h0Z"/><path class="cls-23" d="M239.06,909.35A495.28,495.28,0,1,1,589.5,764.83,493.73,493.73,0,0,1,239.06,909.35ZM-108.32,761.14A491.58,491.58,0,1,0-251.77,413.3,490,490,0,0,0-108.32,761.14Z"/><path class="cls-23" d="M225.17,878.12h0a495.3,495.3,0,0,1-454-533.34h0A495.3,495.3,0,0,1,304.45-109.28h0A495.32,495.32,0,0,1,758.51,424.07h0A495.32,495.32,0,0,1,225.17,878.12Zm-334.69-175a490,490,0,0,0,335,171.35h0A491.57,491.57,0,0,0,754.82,423.78h0A491.57,491.57,0,0,0,304.17-105.59h0A491.55,491.55,0,0,0-225.21,345.06h0a490,490,0,0,0,115.69,358Zm414-812.37Zm-.28,3.69h0ZM758.51,424.07Zm-3.69-.29Z"/><path class="cls-23" d="M213.76,845.89A495.28,495.28,0,0,1,370.12-132.26h0l.18,0A495.26,495.26,0,0,1,781.12,434.92h0l0,.19A495.28,495.28,0,0,1,213.76,845.89ZM-106.15,645.13a491.6,491.6,0,0,0,883.6-210.58v0A491.6,491.6,0,0,0,369.76-128.59h0A491.59,491.59,0,0,0-106.15,645.13Z"/><path class="cls-23" d="M204.91,812.86A495.28,495.28,0,0,1-160.06,215l.05-.2h0A495.28,495.28,0,0,1,437.77-149.95l.2,0h0A495.28,495.28,0,0,1,204.91,812.86ZM-98.24,587.61a491.6,491.6,0,1,0,535.15-734h-.05A491.61,491.61,0,0,0-156.48,215.89v0A490.09,490.09,0,0,0-98.24,587.61Z"/><path class="cls-23" d="M198.59,779.21A495.28,495.28,0,1,1,823.34,462.32l0,.1h0A495.28,495.28,0,0,1,198.7,779.24l-.11,0ZM-85.84,530.9A490.06,490.06,0,0,0,199.84,775.74h0a491.59,491.59,0,0,0,620-314.56v-.05A491.6,491.6,0,1,0-85.84,530.9Z"/><path class="cls-23" d="M196.55,741.83h0A491.59,491.59,0,0,0,839.32,476.92h0A491.59,491.59,0,0,0,574.4-165.85h0A491.58,491.58,0,0,0-68.37,99.06h0A491.59,491.59,0,0,0,196.55,741.83Zm-1.42,3.41A495.3,495.3,0,0,1-71.78,97.65h0A495.28,495.28,0,0,1,575.81-169.26h0A495.29,495.29,0,0,1,842.73,478.33h0A495.3,495.3,0,0,1,195.14,745.24Z"/><path class="cls-23" d="M195.93,707.78l0,0A491.6,491.6,0,0,0,643.87-167.45,491.61,491.61,0,0,0-17.72,46.2l0,0A491.61,491.61,0,0,0,195.93,707.78Zm-2,3.13A495.27,495.27,0,0,1-21,44.52l.15-.28h0a495.28,495.28,0,1,1,593,697.24,493.72,493.72,0,0,1-377.84-30.42l-.29-.14Z"/><path class="cls-23" d="M196.06,676.93A495.29,495.29,0,0,1,33.79-4.46l.11-.19h0A495.28,495.28,0,0,1,715.18-166.73l.18.11h0a495.29,495.29,0,0,1-145,903.52,493.71,493.71,0,0,1-374.29-60ZM-22.6,369A491.59,491.59,0,1,0,713.24-163.58l0,0A491.59,491.59,0,0,0,36.94-2.53l0,0A490,490,0,0,0-22.6,369Z"/><path class="cls-23" d="M200.54,643A495.28,495.28,0,0,1,415.85-246.45a495.28,495.28,0,0,1,476.7,781.2A495.28,495.28,0,0,1,200.54,643ZM6.72,318.88A491.6,491.6,0,1,0,782.11-154.29,491.6,491.6,0,0,0,6.72,318.88Z"/><path class="cls-23" d="M207.66,609.59A495.29,495.29,0,0,1,492.13-260.25,495.29,495.29,0,0,1,906.05,556a495.29,495.29,0,0,1-698.39,53.62ZM39.89,271.23A491.59,491.59,0,1,0,850-139.61,491.6,491.6,0,0,0,39.89,271.23Z"/><path class="cls-23" d="M217.39,576.81A495.29,495.29,0,1,1,567.33,722.56,493.69,493.69,0,0,1,217.39,576.81ZM76.69,226.32A491.61,491.61,0,1,0,221.36-121,490.08,490.08,0,0,0,76.69,226.32Z"/><path class="cls-23" d="M229.67,544.9a495.28,495.28,0,1,1,698.27,56.25h0l-.11.1A495.26,495.26,0,0,1,229.76,545h0l-.09-.12ZM116.92,184.44a490.09,490.09,0,0,0,115.45,358h0l.1.12a491.63,491.63,0,0,0,692.86,56h0l.11-.1a491.61,491.61,0,0,0,55.93-693,491.59,491.59,0,0,0-864.45,279Z"/><path class="cls-23" d="M244.4,514.06A495.29,495.29,0,0,1,1046.87-66.7h0l.1.13A495.29,495.29,0,0,1,936.13,624.93h0L936,625a495.28,495.28,0,0,1-691.59-111Zm-84.11-368.2A491.59,491.59,0,0,0,933.81,622.05h0A491.59,491.59,0,0,0,1044-64.37l0,0A491.6,491.6,0,0,0,160.29,145.86Z"/><path class="cls-23" d="M264.66,482.54l0,0A491.6,491.6,0,0,0,1104-29.44a491.58,491.58,0,0,0-675.67-163.7l0,0A491.6,491.6,0,0,0,264.66,482.54ZM261.24,484a495.28,495.28,0,0,1,165.2-680.29l.44-.27h0a495.28,495.28,0,0,1,738.82,539.72,495.29,495.29,0,0,1-904.2,141.3l-.27-.45Z"/><path class="cls-23" d="M284.19,454.63v0a491.6,491.6,0,0,0,877-444.56A491.61,491.61,0,0,0,500.41-206.11l0,0A491.59,491.59,0,0,0,284.19,454.63Zm-3.49,1.26A495.26,495.26,0,0,1,498.75-209.4l.4-.2h0a495.28,495.28,0,0,1,694.24,596,495.28,495.28,0,0,1-912.5,69.88l-.2-.39Z"/><path class="cls-23" d="M302.44,429.74A495.28,495.28,0,0,1,571.87-216.8l.35-.14h0A495.26,495.26,0,0,1,1218.41,52.64l.15.35h0A495.29,495.29,0,0,1,949,699.18l-.35.14h0A495.26,495.26,0,0,1,302.44,429.74Zm4.21-377.65A491.6,491.6,0,0,0,947.58,695.77h0A491.61,491.61,0,0,0,1215,54l0-.06A491.61,491.61,0,0,0,573.27-213.39h0A490.08,490.08,0,0,0,306.65,52.09Z"/><path class="cls-23" d="M329.5,403.83v0a491.6,491.6,0,0,0,935.73-301.81v0a491.6,491.6,0,0,0-618.76-317l0,0A491.57,491.57,0,0,0,329.5,403.83Zm-3.61.83a495.31,495.31,0,0,1,319.46-623.1l.29-.09h0a495.28,495.28,0,0,1,623.1,319.45l.1.29h0A495.28,495.28,0,0,1,326,405l-.1-.29Z"/><path class="cls-23" d="M351.41,382.11A495.3,495.3,0,1,1,573.54,689.28,493.77,493.77,0,0,1,351.41,382.11ZM414.68,9.77A491.61,491.61,0,1,0,719.57-210.71,490.1,490.1,0,0,0,414.68,9.77Z"/><path class="cls-23" d="M378.56,361.32A495.28,495.28,0,1,1,575.89,685,493.73,493.73,0,0,1,378.56,361.32ZM470.86-4.91A491.62,491.62,0,1,0,792.11-200.77,490,490,0,0,0,470.86-4.91Z"/><path class="cls-23" d="M407.24,342.72A495.3,495.3,0,0,1,863.37-188.85h0a495.29,495.29,0,0,1,531.56,456.13h0A495.29,495.29,0,0,1,938.81,798.85h0A495.3,495.3,0,0,1,407.24,342.72ZM528-15.13a491.59,491.59,0,0,0,410.52,810.3h0a491.59,491.59,0,0,0,452.72-527.61h0A491.59,491.59,0,0,0,863.65-185.16h0A490,490,0,0,0,528-15.13Zm335.63-170h0Zm-.28-3.69h0Zm75.17,984Zm.27,3.68Z"/><path class="cls-23" d="M437.31,326.45A495.27,495.27,0,1,1,581.55,677,493.77,493.77,0,0,1,437.31,326.45ZM585.79-20.82A491.58,491.58,0,1,0,933.75-164a490.05,490.05,0,0,0-348,143.18Z"/><path class="cls-23" d="M468.55,312.57A495.3,495.3,0,1,1,584.83,673.36,493.69,493.69,0,0,1,468.55,312.57ZM643.84-22A491.62,491.62,0,1,0,1002-137.38,490.05,490.05,0,0,0,643.84-22Z"/><path class="cls-23" d="M500.79,301.19A495.28,495.28,0,1,1,588.39,670a493.78,493.78,0,0,1-87.6-368.81Zm201-319.75a491.61,491.61,0,1,0,366.08-86.95,490.08,490.08,0,0,0-366.08,87Z"/><path class="cls-23" d="M533.83,292.38a495.27,495.27,0,1,1,58.38,374.55,493.75,493.75,0,0,1-58.38-374.55Zm225.48-303a491.61,491.61,0,1,0,371.77-57.94A490,490,0,0,0,759.31-10.61Z"/><path class="cls-23" d="M571,287.32h0A491.61,491.61,0,0,0,885,907.55h0a491.59,491.59,0,0,0,620.22-314v0A491.58,491.58,0,0,0,1191.47-26.65h-.13l-.25-.13A491.61,491.61,0,0,0,571,287.32Zm-3.47-1.25A495.29,495.29,0,0,1,1192-30.35h0l.28.09h0l.1,0h0a495.29,495.29,0,0,1,316.42,624.56h0l-.09.29A495.28,495.28,0,0,1,884.18,911.16h0l-.28-.09A495.29,495.29,0,0,1,567.35,286.48v-.14l.13-.27Z"/><path class="cls-23" d="M601.45,282.65a495.29,495.29,0,1,1-1,379.07,493.73,493.73,0,0,1,1-379.07Zm270.13-264a491.61,491.61,0,1,0,376.26,1,490.08,490.08,0,0,0-376.26-1Z"/><path class="cls-23" d="M635.63,281.79a495.28,495.28,0,0,1,881.65,451.56h0l-.21.41A495.26,495.26,0,0,1,850.78,948.71h0l-.4-.21A495.29,495.29,0,0,1,635.63,281.79Zm290-241.94A491.61,491.61,0,0,0,852,945.21h0a491.6,491.6,0,0,0,661.74-213.1l0,0A491.61,491.61,0,0,0,925.64,39.85Z"/><path class="cls-23" d="M669.91,283.41a495.27,495.27,0,0,1,680.91-161.8h0l.46.28a495.26,495.26,0,0,1,162,681.05v.26l-.41.41A495.27,495.27,0,0,1,831.51,965.13l-.21-.13h0A495.28,495.28,0,0,1,669.77,283.62l.13-.2Zm308-218.21a490.06,490.06,0,0,0-305,220.36l0,0A491.62,491.62,0,0,0,833.44,962l0,0a491.62,491.62,0,0,0,676.4-160.54v0a491.61,491.61,0,0,0-160.5-676.41l0,0A490.11,490.11,0,0,0,977.88,65.2Z"/><path class="cls-23" d="M703.66,288.13a495.29,495.29,0,0,1,692.11-107.74l.13.1h0a495.28,495.28,0,0,1,107.6,692l-.09.14h0a495.28,495.28,0,0,1-799.74-584.5ZM1028,94.56a491.6,491.6,0,1,0,472.56,775.76l0,0a491.6,491.6,0,0,0-107-686.92l0,0A490.07,490.07,0,0,0,1028,94.56Z"/><path class="cls-23" d="M737.09,295.28A495.29,495.29,0,1,1,619,655.48a493.8,493.8,0,0,1,118.11-360.2Zm338.5-167.51A491.59,491.59,0,1,0,1433.12,245a490.07,490.07,0,0,0-357.53-117.23Z"/><path class="cls-23" d="M769.86,305a495.3,495.3,0,0,1,700.43,1.91h0a495.3,495.3,0,0,1-1.91,700.43h0A495.28,495.28,0,0,1,768,1005.47h0A495.29,495.29,0,0,1,769.86,305Zm350.61-140.42a491.6,491.6,0,0,0-349.91,838.26h0a491.58,491.58,0,0,0,695.22,1.9h0a491.61,491.61,0,0,0,1.9-695.22h0a490,490,0,0,0-347.21-144.94Z"/><path class="cls-23" d="M801.76,317.33a495.27,495.27,0,0,1,698.13,56.89h0A495.28,495.28,0,0,1,1443,1072.34h0a495.29,495.29,0,0,1-641.23-755Zm360.55-112.46a491.59,491.59,0,1,0,278.3,864.66h0a491.6,491.6,0,0,0,56.47-692.92h0a490,490,0,0,0-334.76-171.73Zm334.77,171.74h0Zm-56.47,692.92Z"/><path class="cls-23" d="M832.6,332.09a495.3,495.3,0,1,1-199,322.66,493.71,493.71,0,0,1,199-322.66Zm368.26-83.82a491.6,491.6,0,1,0,320.25,197.49,490.11,490.11,0,0,0-320.25-197.49Z"/><path class="cls-23" d="M862.18,349.23a495.28,495.28,0,0,1,515.37,845.94h0l-.2.13a495.3,495.3,0,0,1-680.49-165.24h0l-.12-.2A495.3,495.3,0,0,1,862.18,349.23Zm373.71-54.65a491.6,491.6,0,0,0-536,733.33v0a491.59,491.59,0,0,0,675.53,164.23h0a491.6,491.6,0,0,0-139.54-897.57Z"/><path class="cls-23" d="M890.74,368.43A495.27,495.27,0,0,1,1555.86,587l.2.4h0a495.29,495.29,0,0,1-218.57,665.13l-.4.2h0A495.27,495.27,0,0,1,672,1034.16l-.2-.4h0A495.28,495.28,0,0,1,890.33,368.64l.4-.21Zm376.43-24.94A490.08,490.08,0,0,0,892,371.93h0A491.59,491.59,0,0,0,675.25,1032.5l0,0a491.59,491.59,0,0,0,660.56,216.71h0a491.62,491.62,0,0,0,216.71-660.56l0,0a490,490,0,0,0-285.38-245.15Z"/><path class="cls-23" d="M916.86,390.19h0A495.28,495.28,0,0,1,1563.2,660.13h0A495.29,495.29,0,1,1,916.86,390.19Zm377.66,4.52a490,490,0,0,0-376.25-1.11h0a491.6,491.6,0,1,0,641.52,267.93h0a490,490,0,0,0-265.27-266.82Z"/><path class="cls-23" d="M941.51,413.81h0l.12,0a495.29,495.29,0,0,1,623.11,319.71l.13.27v.16a495.3,495.3,0,0,1-319.93,622.85l-.3.09h0a495.28,495.28,0,0,1-303.13-943Zm376.25,34.1a490,490,0,0,0-375-30.64h0a491.6,491.6,0,1,0,301.06,936h0a491.59,491.59,0,0,0,317.44-618.5h0a490,490,0,0,0-243.51-286.82Z"/><path class="cls-23" d="M964.46,439.21A495.29,495.29,0,1,1,657.12,661.1,493.71,493.71,0,0,1,964.46,439.21Zm372.29,63.56A491.61,491.61,0,1,0,1557,807.83a490,490,0,0,0-220.24-305.06Z"/><path class="cls-23" d="M985.8,470h0A491.6,491.6,0,1,0,1547,880.36v0A491.62,491.62,0,0,0,985.8,470Zm-.37-3.67A495.27,495.27,0,0,1,1550.64,879.8l0,.18h0A495.28,495.28,0,1,1,985.23,466.37l.19,0Z"/><path class="cls-23" d="M1003.8,495.07A495.29,495.29,0,1,1,665.51,666.13,493.73,493.73,0,0,1,1003.8,495.07Zm357.76,121.05a491.6,491.6,0,1,0,169.78,335.77,490.07,490.07,0,0,0-169.78-335.77Z"/></g><polygon class="cls-24" points="315.86 105.96 295.86 105.96 150.04 691.58 172.15 683.11 315.86 105.96"/><polygon class="cls-24" points="610.95 267.2 590.95 267.2 577.76 320.15 597.76 320.15 610.95 267.2"/><polygon class="cls-24" points="436.57 481.41 476.72 320.15 456.72 320.15 416.57 481.41 469.95 569.06 486.17 562.85 436.57 481.41"/><polygon class="cls-24" points="613.44 257.21 593.44 257.21 580.25 310.17 600.25 310.17 613.44 257.21"/><polygon class="cls-24" points="608.4 276.97 588.4 276.97 575.21 329.93 595.21 329.93 608.4 276.97"/><path d="M779.54,116,691,471.39l-61.63,0H611.55l9.32,15.22,6.93,11.31L554.49,526l-80.33,30.74-46.88-77,37.26-149.62h121l1.88-7.58,13.19-53,3.09-12.41H409.14l-1.89,7.58L319.83,615.84l-84.25,32.27-71.2,27.27L303.68,116H779.54m12.79-10H295.86L150,691.58l89.12-34.13,89.12-34.13L417,267.2H591l-13.19,52.95h-121L416.57,481.41,470,569.06l88.12-33.72L642.61,503,629.4,481.41l69.45,0L792.33,106Z"/></svg>