<?xml version="1.0" standalone="no"?>
<!DOCTYPE svg PUBLIC "-//W3C//DTD SVG 20010904//EN"
 "http://www.w3.org/TR/2001/REC-SVG-20010904/DTD/svg10.dtd">
<svg version="1.0" xmlns="http://www.w3.org/2000/svg"
 width="926.000000pt" height="926.000000pt" viewBox="0 0 926.000000 926.000000"
 preserveAspectRatio="xMidYMid meet">
<metadata>
Created by potrace 1.14, written by Peter Selinger 2001-2017
</metadata>
<g transform="translate(0.000000,926.000000) scale(0.100000,-0.100000)"
fill="#000000" stroke="none">
<path d="M2145 8928 c-6 -18 -65 -248 -71 -278 -3 -14 -21 -86 -41 -160 -19
-74 -36 -144 -37 -155 -1 -11 -5 -26 -9 -32 -5 -7 -6 -13 -3 -13 3 0 1 -11 -4
-25 -5 -14 -12 -38 -15 -53 -8 -38 -13 -57 -15 -57 -1 0 -4 -11 -6 -25 -5 -29
-56 -233 -85 -340 -11 -41 -22 -86 -24 -100 -2 -14 -20 -88 -40 -165 -20 -77
-38 -147 -40 -155 -5 -21 -71 -286 -102 -405 -14 -55 -27 -111 -29 -125 -3
-14 -9 -39 -15 -57 -5 -17 -12 -44 -15 -60 -3 -15 -10 -46 -16 -68 -12 -43
-13 -47 -22 -85 -3 -14 -13 -52 -22 -85 -9 -33 -18 -71 -19 -85 -2 -14 -4 -25
-5 -25 -1 0 -3 -7 -5 -15 -2 -8 -11 -40 -19 -70 -8 -30 -17 -66 -20 -80 -3
-14 -12 -54 -21 -90 -9 -36 -19 -74 -21 -85 -3 -11 -7 -27 -9 -35 -2 -8 -4
-16 -5 -17 -2 -2 -3 -6 -4 -10 -4 -18 -20 -88 -20 -93 -1 -3 -4 -9 -7 -15 -4
-5 -5 -18 -4 -27 2 -10 -2 -18 -8 -18 -5 0 -8 -3 -5 -6 4 -3 -5 -46 -18 -96
-14 -50 -25 -102 -26 -115 -1 -12 -6 -23 -10 -23 -4 0 -7 -3 -6 -7 2 -11 -21
-120 -34 -163 -7 -19 -13 -42 -14 -50 -3 -18 -5 -28 -34 -140 -12 -47 -24 -93
-26 -102 -9 -38 -98 -396 -120 -483 -8 -33 -17 -71 -20 -85 -2 -14 -7 -32 -10
-40 -4 -8 -8 -24 -10 -35 -1 -11 -15 -65 -29 -120 -14 -55 -28 -108 -30 -118
-2 -10 -6 -26 -9 -35 -3 -9 -7 -28 -10 -42 -3 -14 -12 -48 -19 -77 -8 -28 -12
-54 -9 -57 3 -3 0 -6 -7 -6 -7 0 -10 -4 -7 -9 3 -4 1 -23 -5 -42 -6 -19 -12
-43 -14 -54 -3 -11 -16 -65 -30 -120 -14 -55 -28 -111 -31 -125 -7 -34 -33
-138 -44 -175 -5 -16 -11 -41 -14 -55 -2 -14 -14 -63 -26 -110 -12 -47 -23
-92 -25 -100 -2 -8 -29 -116 -60 -240 -31 -124 -58 -234 -60 -245 -1 -11 -8
-33 -14 -50 -7 -16 -12 -30 -11 -30 2 0 -9 -48 -47 -200 -19 -77 -36 -147 -38
-155 -2 -8 -8 -35 -15 -60 -6 -25 -12 -54 -14 -65 -2 -11 -4 -20 -5 -20 -3 0
-5 -11 -14 -50 -3 -11 -10 -40 -17 -65 -7 -25 -14 -56 -16 -70 -3 -14 -8 -34
-11 -45 -4 -11 -8 -24 -9 -30 -1 -5 -7 -30 -13 -55 -7 -25 -13 -52 -15 -61 -2
-8 -30 -118 -61 -243 -31 -125 -58 -235 -60 -244 -2 -9 -4 -17 -5 -17 -1 0 -3
-7 -5 -15 -9 -40 -16 -70 -30 -125 -9 -33 -18 -69 -20 -80 -13 -64 -27 -122
-32 -135 -3 -8 -8 -24 -10 -34 -2 -11 -11 -47 -19 -80 -9 -34 -17 -68 -19 -76
-7 -30 -96 -386 -101 -403 -5 -16 -1 -16 48 4 29 11 89 34 133 51 44 16 94 35
110 43 17 7 68 27 115 45 47 18 99 38 115 45 69 29 100 40 108 37 4 -1 7 2 7
8 0 6 3 9 8 8 6 -2 135 45 197 72 18 8 195 78 365 143 36 14 164 64 285 112
121 47 256 100 300 117 44 17 94 36 110 43 140 57 187 75 200 75 8 0 15 5 15
11 0 5 3 8 8 6 4 -3 25 3 46 14 22 10 44 19 49 19 5 0 23 6 40 14 18 8 75 31
127 51 327 127 448 174 475 186 11 5 52 20 90 35 39 14 75 30 81 35 6 5 13 6
17 3 3 -3 16 1 29 9 12 8 41 20 63 27 22 7 45 16 50 20 6 4 28 13 50 20 22 7
45 16 50 20 6 5 15 9 20 10 12 3 49 16 95 34 61 24 192 75 210 81 3 1 17 7 33
13 70 30 83 35 95 38 8 1 28 9 45 17 18 8 79 33 137 55 58 22 119 46 135 53
17 7 32 13 35 14 30 10 177 69 217 86 24 11 47 19 53 19 5 0 24 7 42 15 48 22
415 165 422 165 3 0 26 9 50 21 25 11 52 22 60 23 9 1 19 5 22 9 4 4 16 7 26
7 10 0 18 3 18 8 0 4 17 12 38 19 20 6 51 17 67 24 17 7 32 13 35 14 3 1 18 7
33 13 16 7 31 12 34 12 3 0 19 7 36 14 18 8 97 40 177 71 80 30 154 59 165 64
11 5 63 26 115 46 52 21 106 42 120 48 14 5 34 12 44 14 11 2 24 7 30 12 6 4
40 18 76 31 36 13 76 30 90 37 14 7 31 13 38 13 7 0 20 4 30 10 9 5 94 39 187
75 94 36 179 70 190 74 11 5 36 15 55 22 19 6 53 20 75 30 23 10 53 21 68 24
15 4 30 11 33 16 3 5 12 9 21 9 8 0 29 7 46 15 29 12 395 157 407 160 3 1 14
5 25 10 11 4 43 17 70 28 28 10 61 24 75 30 14 5 30 11 35 13 11 3 154 58 195
75 14 6 79 32 145 58 l120 47 16 74 c9 41 19 82 23 90 5 14 9 31 22 95 3 17 8
37 11 45 7 17 9 24 17 60 3 14 12 54 21 90 9 36 18 72 20 80 2 8 16 62 30 120
15 58 28 112 30 120 2 8 22 89 45 180 23 91 43 174 45 185 2 11 15 62 28 112
13 51 22 95 19 98 -3 3 -1 5 5 5 6 0 10 6 9 13 0 6 16 81 38 166 21 85 40 161
41 170 2 9 4 16 5 16 1 0 3 7 5 15 2 8 7 26 10 40 3 14 8 34 10 45 3 11 23 92
45 180 22 88 42 169 45 180 2 11 13 54 24 95 11 41 22 86 24 100 3 14 17 72
32 130 15 58 28 112 30 120 2 8 14 53 25 100 12 47 23 92 25 100 2 8 13 53 25
100 12 47 23 92 25 100 2 8 40 159 85 335 45 176 83 331 85 345 1 14 4 25 5
25 1 0 3 7 5 15 1 8 10 44 20 80 9 36 18 74 19 85 1 11 4 25 8 30 3 6 12 37
19 70 7 33 14 65 16 70 5 18 44 169 48 190 15 64 41 173 49 195 4 15 17 63 22
90 2 8 15 60 29 115 14 55 28 109 30 120 13 58 16 75 16 80 0 2 6 23 14 45 8
22 12 40 8 40 -3 0 0 7 7 15 7 8 10 15 8 15 -4 0 21 113 37 170 3 8 11 44 20
80 8 36 22 90 30 120 9 30 18 66 20 80 2 14 9 41 15 60 5 19 10 36 10 37 0 2
-1600 3 -3555 3 -2836 0 -3557 -3 -3560 -12z"/>
</g>
</svg>
